<svg version="1.0" xmlns="http://www.w3.org/2000/svg"
 width="215.000000pt" height="234.000000pt" viewBox="0 0 215.000000 234.000000"
 preserveAspectRatio="xMidYMid meet">

<g transform="translate(0.000000,234.000000) scale(0.100000,-0.100000)"
fill="none" stroke="black" stroke-width="10">
<path d="M721 2099 c-25 -5 -49 -13 -54 -18 -11 -11 -65 -3 -85 12 -9 7 -18 2
-33 -16 -11 -15 -31 -32 -45 -39 -23 -11 -39 -35 -64 -88 -4 -8 -24 -24 -45
-35 -43 -22 -72 -51 -127 -123 -35 -46 -37 -53 -32 -104 5 -54 -13 -119 -36
-133 -8 -5 -8 -11 0 -20 6 -8 11 -22 10 -32 -5 -39 1 -63 13 -63 21 0 67 -54
67 -78 0 -14 9 -26 23 -31 12 -5 31 -19 42 -31 35 -39 73 -53 106 -40 17 7 50
10 77 7 33 -3 62 1 97 14 75 28 111 25 130 -10 13 -26 18 -29 53 -24 51 7 66
-11 57 -71 -4 -26 -11 -49 -16 -52 -12 -7 13 -53 41 -79 29 -27 58 -85 71
-143 14 -64 13 -81 -5 -101 -9 -10 -19 -44 -22 -77 -6 -54 -3 -64 28 -119 19
-34 39 -88 46 -124 6 -35 20 -73 30 -85 31 -35 61 -103 51 -113 -6 -6 0 -19
16 -35 23 -23 30 -25 58 -17 18 5 47 9 65 9 47 0 92 22 132 65 19 20 45 47 58
60 13 13 26 40 29 60 5 29 12 39 41 51 l35 14 -6 58 -6 58 42 36 c23 19 52 38
64 42 12 4 27 14 34 22 16 20 21 144 6 162 -5 7 -11 28 -12 46 -1 18 -6 39
-10 46 -16 26 31 97 131 195 108 106 157 182 170 266 7 41 6 42 -17 35 -59
-18 -155 -36 -166 -31 -7 2 -13 13 -13 24 0 17 -30 48 -98 103 -12 10 -22 24
-22 31 0 8 -11 24 -25 37 -15 14 -25 35 -25 52 0 17 -10 39 -25 54 -14 13 -24
28 -23 32 1 4 -10 25 -25 47 -24 37 -26 44 -15 72 17 44 -1 81 -39 82 -50 2
-58 1 -88 -4 -16 -3 -55 1 -85 10 -30 9 -67 19 -83 22 -30 6 -61 -13 -53 -33
3 -7 1 -16 -4 -19 -14 -9 -82 16 -103 37 -10 10 -21 18 -25 19 -4 0 -18 2 -31
3 -14 2 -27 8 -29 14 -2 7 -11 12 -19 12 -13 0 -13 2 -2 16 8 9 14 29 15 45
l2 27 -92 0 c-50 -1 -111 -5 -135 -9z"/>
<path d="M1884 797 c-13 -34 -67 -86 -95 -92 -32 -7 -45 -38 -35 -79 4 -15 -1
-32 -14 -49 -19 -24 -23 -88 -6 -116 8 -13 45 -15 63 -3 15 9 103 210 103 235
0 10 5 15 10 12 12 -7 3 70 -11 95 -6 13 -9 12 -15 -3z"/>
</g>
<g transform="translate(10.00000,220.000000) scale(0.100000,-0.100000)"
fill="#000000" stroke="none">
<path d="M1160 1986 c0 -11 17 -54 39 -95 21 -42 41 -92 45 -111 5 -27 4 -31
-4 -15 -8 16 -9 12 -7 -22 1 -23 -1 -39 -5 -37 -4 3 -13 -14 -19 -36 -7 -22
-15 -36 -19 -30 -3 5 -14 -6 -23 -25 -10 -20 -21 -34 -26 -30 -5 3 -12 -8 -16
-25 -4 -17 -11 -28 -16 -24 -5 3 -9 0 -9 -6 0 -6 -4 -9 -9 -6 -5 3 -11 -4 -14
-15 -3 -12 -10 -18 -16 -14 -6 3 -11 -1 -11 -10 0 -8 -9 -23 -20 -32 -11 -10
-20 -23 -20 -30 0 -7 -4 -13 -9 -13 -5 0 -14 -14 -20 -32 -17 -48 -24 -26 -11
35 12 60 63 152 113 207 18 19 24 28 15 21 -10 -7 -18 -9 -18 -3 0 15 26 33
35 24 5 -4 5 -1 1 6 -4 6 -2 12 4 12 6 0 8 5 5 10 -3 6 3 22 14 36 12 15 21
32 21 38 0 6 -6 2 -12 -9 -6 -11 -19 -28 -29 -37 -17 -17 -17 -16 -12 17 4 23
2 35 -6 35 -6 0 -11 -9 -11 -19 0 -11 -4 -22 -8 -25 -5 -3 -10 -26 -10 -52 -2
-48 -46 -129 -70 -129 -6 0 -19 -10 -27 -23 -9 -12 -21 -20 -26 -16 -6 3 -13
-3 -16 -15 -3 -11 -9 -19 -13 -16 -5 3 -12 0 -16 -6 -4 -8 -3 -9 4 -5 7 4 12
1 12 -8 0 -8 -5 -18 -11 -21 -6 -4 -8 -13 -5 -21 3 -7 1 -16 -4 -19 -6 -4 -10
-16 -10 -28 0 -21 0 -21 14 -2 7 11 16 37 20 57 6 35 76 133 76 107 0 -7 -9
-22 -20 -34 -35 -37 -45 -186 -16 -233 4 -8 9 -31 10 -53 2 -31 -1 -38 -12
-34 -9 3 -12 0 -9 -9 3 -7 0 -19 -6 -27 -7 -7 1 -5 16 5 28 17 30 17 47 -2 19
-20 18 -20 -7 -27 -17 -4 -29 -1 -34 7 -7 10 -9 9 -9 -3 0 -9 -7 -22 -15 -29
-12 -10 -13 -16 -4 -26 6 -8 15 -14 19 -14 11 0 8 30 -4 30 -20 1 19 17 56 24
48 9 193 10 238 2 43 -8 69 6 52 27 -10 12 -8 16 9 20 11 3 18 10 15 16 -4 6
1 22 10 36 9 14 14 28 10 32 -3 3 -6 2 -6 -4 0 -6 -13 -27 -29 -47 -16 -20
-28 -46 -26 -56 3 -17 -1 -18 -28 -13 -44 8 -44 10 -11 35 46 35 84 75 84 88
0 18 -20 1 -30 -25 -6 -15 -16 -23 -30 -22 -11 1 -20 2 -20 3 0 0 13 27 30 60
25 50 30 74 34 156 2 53 9 105 15 117 7 12 9 21 5 21 -3 0 4 9 17 20 18 15 20
19 5 14 -17 -7 -17 -5 -2 24 12 23 13 36 6 54 l-11 23 5 -24 c3 -13 -4 -41
-15 -63 -11 -21 -17 -43 -14 -48 3 -6 1 -10 -6 -10 -7 0 -9 -3 -6 -7 4 -3 -1
-12 -11 -19 -14 -10 -17 -27 -16 -95 1 -50 -1 -76 -7 -68 -7 11 -9 9 -9 -7 0
-11 -3 -24 -7 -27 -8 -9 -34 43 -27 54 3 5 0 9 -5 9 -6 0 -12 15 -12 33 -1 21
-3 25 -6 12 -3 -11 -9 -24 -14 -29 -15 -16 -11 29 5 60 8 15 12 32 9 37 -3 5
-14 -7 -23 -28 l-17 -38 -17 44 -16 44 6 -39 c3 -22 24 -66 46 -99 38 -55 40
-63 30 -91 -10 -27 -10 -29 2 -13 13 16 14 16 20 -9 8 -30 0 -61 -23 -89 -15
-19 -15 -19 4 -5 18 14 19 14 7 -1 -14 -19 -56 -14 -45 5 3 6 -2 4 -13 -5 -30
-25 -50 -29 -71 -14 -15 11 -20 11 -34 -1 -14 -12 -18 -12 -34 6 -10 11 -15
20 -10 20 4 0 2 6 -4 14 -8 10 -7 25 6 62 28 84 37 103 45 98 4 -2 6 4 6 13 0
10 3 27 8 38 7 19 7 19 -9 4 -9 -9 -19 -28 -23 -43 -3 -14 -10 -23 -15 -20 -5
3 -9 -12 -10 -33 0 -30 -2 -34 -9 -18 -7 17 -9 15 -9 -12 -1 -41 -15 -49 -29
-18 -25 54 4 101 149 247 133 133 159 174 159 246 0 41 -6 57 -35 95 -19 25
-35 49 -35 53 0 14 34 -23 62 -65 15 -25 28 -40 28 -34 0 12 -51 83 -73 102
-9 7 -17 10 -17 6 0 -5 -9 0 -20 10 -11 10 -20 23 -20 28 0 6 8 3 18 -6 20
-19 47 -23 37 -7 -4 6 -10 8 -15 5 -5 -3 -20 9 -34 27 -21 27 -26 29 -26 14z"/>
<path d="M1120 1091 c0 -7 -6 -9 -12 -5 -9 5 -10 4 -3 -4 6 -6 30 -12 55 -15
26 -2 8 -4 -42 -5 -53 -1 -90 -6 -94 -14 -5 -7 -3 -8 6 -3 10 6 12 3 8 -13 -5
-17 -2 -22 13 -22 12 0 19 7 19 20 0 26 40 28 41 3 0 -16 1 -15 8 1 7 19 8 19
13 -2 5 -19 14 -22 65 -24 l58 -2 -49 -3 c-27 -2 -56 -1 -65 3 -9 4 -22 6 -30
5 -8 -1 -18 3 -23 11 -7 10 -8 9 -4 -4 5 -15 -1 -18 -38 -18 -24 0 -59 -2 -77
-5 -22 -4 -28 -3 -16 3 10 4 18 11 18 15 -3 24 2 29 9 12 8 -19 9 -19 9 -1 1
20 1 20 16 0 13 -18 14 -18 8 4 -5 20 -10 23 -34 18 -16 -3 -31 -1 -34 4 -4 6
-11 8 -16 4 -6 -4 -4 -13 6 -24 9 -10 12 -21 7 -24 -5 -3 -7 -18 -4 -34 2 -16
-1 -33 -7 -36 -17 -11 -13 -26 4 -20 9 4 15 19 15 35 0 16 4 29 9 29 4 0 7
-12 5 -27 -3 -24 -2 -24 6 5 6 17 15 32 20 32 5 0 7 -15 5 -32 l-5 -33 12 35
c11 34 11 35 18 10 8 -24 8 -24 9 -2 1 26 18 30 24 5 4 -17 5 -17 6 0 2 27 19
20 24 -10 3 -24 4 -23 6 7 1 27 4 31 11 20 9 -13 11 -13 19 0 9 12 11 12 17
-3 5 -14 9 -15 20 -6 11 9 14 6 14 -15 0 -14 5 -26 10 -26 6 0 10 8 10 18 0
14 2 15 9 2 6 -8 7 -18 5 -22 -3 -4 13 -8 35 -8 22 0 42 5 44 13 4 7 6 6 6 -4
1 -9 10 -19 22 -22 16 -4 19 -2 14 11 -4 9 -10 27 -12 40 -4 15 -13 22 -32 23
-24 2 -24 2 -3 6 13 3 29 0 35 -5 17 -15 14 85 -3 101 -10 10 -11 9 -5 -2 6
-11 4 -13 -11 -6 -35 14 -174 19 -174 6z"/>
<path d="M1025 924 c-70 -6 -85 -12 -62 -26 10 -5 27 -24 38 -41 10 -18 19
-27 19 -21 0 6 -9 24 -21 40 l-21 29 26 -28 c31 -34 32 -46 6 -79 -20 -26 -16
-46 6 -28 13 11 72 9 92 -4 18 -11 142 -3 142 9 0 5 -7 19 -15 29 -21 28 -19
41 11 73 l26 28 -21 -29 c-12 -16 -21 -34 -21 -40 0 -6 9 4 20 22 11 18 30 36
42 41 18 6 19 9 5 14 -23 9 -209 16 -272 11z"/>
<path d="M1032 465 l2 -110 3 103 c4 112 22 133 25 29 l2 -62 6 70 c5 55 7 61
10 30 l3 -40 7 40 c4 22 8 31 9 20 1 -17 3 -18 11 -5 7 11 10 -7 12 -60 5
-198 6 -193 -39 -192 -15 0 -36 -9 -46 -19 -10 -10 -13 -19 -7 -19 6 0 13 7
16 15 10 24 37 19 31 -6 -6 -21 -4 -21 66 -16 124 10 134 17 98 63 -12 15 -21
33 -21 40 0 8 -4 14 -8 14 -11 0 -14 149 -4 185 l9 30 -93 0 -94 0 2 -110z"/>
</g>
</svg>
